<svg width="1728" height="419" viewBox="0 0 1728 419" fill="none" xmlns="http://www.w3.org/2000/svg">
<path d="M-15.6023 413V5.72726H147.466C177.428 5.72726 202.419 10.1686 222.438 19.0511C242.456 27.9337 257.504 40.2633 267.58 56.0398C277.655 71.6837 282.693 89.714 282.693 110.131C282.693 126.04 279.511 140.027 273.148 152.091C266.784 164.023 258.034 173.833 246.898 181.523C235.894 189.08 223.299 194.449 209.114 197.631V201.608C224.625 202.271 239.142 206.646 252.665 214.733C266.32 222.82 277.39 234.155 285.875 248.739C294.36 263.189 298.602 280.424 298.602 300.443C298.602 322.053 293.233 341.343 282.494 358.312C271.888 375.15 256.178 388.473 235.364 398.284C214.549 408.095 188.896 413 158.403 413H-15.6023ZM70.5057 342.602H140.705C164.701 342.602 182.201 338.028 193.205 328.881C204.208 319.6 209.71 307.271 209.71 291.892C209.71 280.623 206.992 270.68 201.557 262.062C196.121 253.445 188.366 246.684 178.29 241.778C168.347 236.873 156.481 234.42 142.693 234.42H70.5057V342.602ZM70.5057 176.153H134.341C146.14 176.153 156.614 174.098 165.761 169.989C175.042 165.746 182.333 159.78 187.636 152.091C193.072 144.402 195.79 135.188 195.79 124.449C195.79 109.733 190.553 97.8674 180.08 88.8523C169.739 79.8371 155.023 75.3295 135.932 75.3295H70.5057V176.153ZM440.74 5.72726V413H354.632V5.72726H440.74ZM781.642 137.375C778.858 127.697 774.947 119.146 769.909 111.722C764.871 104.165 758.706 97.8011 751.415 92.6307C744.256 87.3276 736.036 83.2841 726.756 80.5C717.608 77.7159 707.466 76.3239 696.33 76.3239C675.515 76.3239 657.22 81.4943 641.443 91.8352C625.799 102.176 613.602 117.223 604.852 136.977C596.102 156.598 591.727 180.595 591.727 208.966C591.727 237.337 596.036 261.466 604.653 281.352C613.271 301.239 625.468 316.419 641.244 326.892C657.021 337.233 675.648 342.403 697.125 342.403C716.614 342.403 733.252 338.956 747.04 332.062C760.96 325.036 771.566 315.159 778.858 302.432C786.282 289.705 789.994 274.657 789.994 257.29L807.494 259.875H702.494V195.045H872.92V246.352C872.92 282.148 865.364 312.905 850.25 338.625C835.136 364.212 814.322 383.966 787.807 397.886C761.292 411.674 730.932 418.568 696.727 418.568C658.545 418.568 625.004 410.15 596.102 393.312C567.201 376.343 544.663 352.28 528.489 321.125C512.447 289.837 504.426 252.716 504.426 209.761C504.426 176.75 509.199 147.318 518.744 121.466C528.422 95.4811 541.945 73.4735 559.312 55.4432C576.68 37.4129 596.898 23.6913 619.966 14.2784C643.034 4.86551 668.025 0.159076 694.938 0.159076C718.006 0.159076 739.483 3.53976 759.369 10.3011C779.256 16.9299 796.888 26.3428 812.267 38.5398C827.778 50.7367 840.439 65.2538 850.25 82.0909C860.061 98.7954 866.358 117.223 869.142 137.375H781.642ZM995.222 413H902.949L1043.55 5.72726H1154.51L1294.91 413H1202.64L1100.62 98.7954H1097.44L995.222 413ZM989.455 252.915H1207.41V320.131H989.455V252.915ZM1430.04 5.72726V413H1343.93V5.72726H1430.04ZM1500.88 413V5.72726H1661.56C1692.32 5.72726 1718.57 11.2292 1740.31 22.2329C1762.19 33.1042 1778.83 48.5492 1790.23 68.5682C1801.76 88.4545 1807.53 111.854 1807.53 138.767C1807.53 165.812 1801.7 189.08 1790.03 208.568C1778.36 227.924 1761.46 242.773 1739.32 253.114C1717.31 263.455 1690.66 268.625 1659.38 268.625H1551.79V199.42H1645.46C1661.9 199.42 1675.55 197.167 1686.42 192.659C1697.29 188.152 1705.38 181.39 1710.68 172.375C1716.12 163.36 1718.84 152.157 1718.84 138.767C1718.84 125.244 1716.12 113.843 1710.68 104.562C1705.38 95.2822 1697.23 88.2557 1686.22 83.4829C1675.35 78.5776 1661.63 76.125 1645.06 76.125H1586.99V413H1500.88ZM1720.83 227.659L1822.05 413H1726.99L1627.96 227.659H1720.83Z" fill="white"/>
</svg>
