<svg width="166" height="73" viewBox="0 0 166 73" fill="none" xmlns="http://www.w3.org/2000/svg">
<path d="M0.886364 35.3864V0.477273H16.0227C18.6818 0.477273 20.9148 0.835228 22.7216 1.55114C24.5398 2.26705 25.9091 3.27841 26.8295 4.58523C27.7614 5.89205 28.2273 7.43182 28.2273 9.20455C28.2273 10.4886 27.9432 11.6591 27.375 12.7159C26.8182 13.7727 26.0341 14.6591 25.0227 15.375C24.0114 16.0795 22.8295 16.5682 21.4773 16.8409V17.1818C22.9773 17.2386 24.3409 17.6193 25.5682 18.3239C26.7955 19.017 27.7727 19.9773 28.5 21.2045C29.2273 22.4205 29.5909 23.8523 29.5909 25.5C29.5909 27.4091 29.0909 29.108 28.0909 30.5966C27.1023 32.0852 25.6932 33.2557 23.8636 34.108C22.0341 34.9602 19.8523 35.3864 17.3182 35.3864H0.886364ZM10.3636 27.8182H14.7955C16.3864 27.8182 17.5795 27.5227 18.375 26.9318C19.1705 26.3295 19.5682 25.4432 19.5682 24.2727C19.5682 23.4545 19.3807 22.7614 19.0057 22.1932C18.6307 21.625 18.0966 21.1932 17.4034 20.8977C16.7216 20.6023 15.8977 20.4545 14.9318 20.4545H10.3636V27.8182ZM10.3636 14.5909H14.25C15.0795 14.5909 15.8125 14.4602 16.4489 14.1989C17.0852 13.9375 17.5795 13.5625 17.9318 13.0739C18.2955 12.5739 18.4773 11.9659 18.4773 11.25C18.4773 10.1705 18.0909 9.34659 17.3182 8.77841C16.5455 8.19886 15.5682 7.90909 14.3864 7.90909H10.3636V14.5909ZM66.767 17.9318C66.767 21.8182 66.0114 25.0966 64.5 27.767C62.9886 30.4261 60.9489 32.4432 58.3807 33.8182C55.8125 35.1818 52.9489 35.8636 49.7898 35.8636C46.608 35.8636 43.733 35.1761 41.1648 33.8011C38.608 32.4148 36.5739 30.392 35.0625 27.733C33.5625 25.0625 32.8125 21.7955 32.8125 17.9318C32.8125 14.0455 33.5625 10.7727 35.0625 8.11364C36.5739 5.44318 38.608 3.42614 41.1648 2.0625C43.733 0.6875 46.608 0 49.7898 0C52.9489 0 55.8125 0.6875 58.3807 2.0625C60.9489 3.42614 62.9886 5.44318 64.5 8.11364C66.0114 10.7727 66.767 14.0455 66.767 17.9318ZM57.017 17.9318C57.017 15.8409 56.7386 14.0795 56.1818 12.6477C55.6364 11.2045 54.8239 10.1136 53.7443 9.375C52.6761 8.625 51.358 8.25 49.7898 8.25C48.2216 8.25 46.8977 8.625 45.8182 9.375C44.75 10.1136 43.9375 11.2045 43.3807 12.6477C42.8352 14.0795 42.5625 15.8409 42.5625 17.9318C42.5625 20.0227 42.8352 21.7898 43.3807 23.233C43.9375 24.6648 44.75 25.7557 45.8182 26.5057C46.8977 27.2443 48.2216 27.6136 49.7898 27.6136C51.358 27.6136 52.6761 27.2443 53.7443 26.5057C54.8239 25.7557 55.6364 24.6648 56.1818 23.233C56.7386 21.7898 57.017 20.0227 57.017 17.9318ZM89.9702 11.3864C89.8793 10.25 89.4531 9.36364 88.6918 8.72727C87.9418 8.09091 86.7997 7.77273 85.2656 7.77273C84.2884 7.77273 83.4872 7.89205 82.8622 8.13068C82.2486 8.35795 81.794 8.67045 81.4986 9.06818C81.2031 9.46591 81.0497 9.92045 81.0384 10.4318C81.0156 10.8523 81.0895 11.233 81.2599 11.5739C81.4418 11.9034 81.7259 12.2045 82.1122 12.4773C82.4986 12.7386 82.9929 12.9773 83.5952 13.1932C84.1974 13.4091 84.9134 13.6023 85.7429 13.7727L88.6065 14.3864C90.5384 14.7955 92.1918 15.3352 93.5668 16.0057C94.9418 16.6761 96.0668 17.4659 96.9418 18.375C97.8168 19.2727 98.4588 20.2841 98.8679 21.4091C99.2884 22.5341 99.5043 23.7614 99.5156 25.0909C99.5043 27.3864 98.9304 29.3295 97.794 30.9205C96.6577 32.5114 95.0327 33.7216 92.919 34.5511C90.8168 35.3807 88.2884 35.7955 85.3338 35.7955C82.2997 35.7955 79.652 35.3466 77.3906 34.4489C75.1406 33.5511 73.3906 32.1705 72.1406 30.3068C70.902 28.4318 70.277 26.0341 70.2656 23.1136H79.2656C79.3224 24.1818 79.5895 25.0795 80.0668 25.8068C80.544 26.5341 81.2145 27.0852 82.0781 27.4602C82.9531 27.8352 83.9929 28.0227 85.1974 28.0227C86.2088 28.0227 87.0554 27.8977 87.7372 27.6477C88.419 27.3977 88.9361 27.0511 89.2884 26.608C89.6406 26.1648 89.8224 25.6591 89.8338 25.0909C89.8224 24.5568 89.6463 24.0909 89.3054 23.6932C88.9759 23.2841 88.4304 22.9205 87.669 22.6023C86.9077 22.2727 85.8793 21.9659 84.5838 21.6818L81.1065 20.9318C78.0156 20.2614 75.5781 19.142 73.794 17.5739C72.0213 15.9943 71.1406 13.8409 71.152 11.1136C71.1406 8.89773 71.7315 6.96023 72.9247 5.30114C74.1293 3.63068 75.794 2.32955 77.919 1.39773C80.0554 0.465909 82.5043 0 85.2656 0C88.0838 0 90.5213 0.471591 92.5781 1.41477C94.6349 2.35795 96.2202 3.6875 97.3338 5.40341C98.4588 7.10795 99.027 9.10227 99.0384 11.3864H89.9702ZM121.939 11.3864C121.848 10.25 121.422 9.36364 120.661 8.72727C119.911 8.09091 118.768 7.77273 117.234 7.77273C116.257 7.77273 115.456 7.89205 114.831 8.13068C114.217 8.35795 113.763 8.67045 113.467 9.06818C113.172 9.46591 113.018 9.92045 113.007 10.4318C112.984 10.8523 113.058 11.233 113.229 11.5739C113.411 11.9034 113.695 12.2045 114.081 12.4773C114.467 12.7386 114.962 12.9773 115.564 13.1932C116.166 13.4091 116.882 13.6023 117.712 13.7727L120.575 14.3864C122.507 14.7955 124.161 15.3352 125.536 16.0057C126.911 16.6761 128.036 17.4659 128.911 18.375C129.786 19.2727 130.428 20.2841 130.837 21.4091C131.257 22.5341 131.473 23.7614 131.484 25.0909C131.473 27.3864 130.899 29.3295 129.763 30.9205C128.626 32.5114 127.001 33.7216 124.888 34.5511C122.786 35.3807 120.257 35.7955 117.303 35.7955C114.268 35.7955 111.621 35.3466 109.359 34.4489C107.109 33.5511 105.359 32.1705 104.109 30.3068C102.871 28.4318 102.246 26.0341 102.234 23.1136H111.234C111.291 24.1818 111.558 25.0795 112.036 25.8068C112.513 26.5341 113.183 27.0852 114.047 27.4602C114.922 27.8352 115.962 28.0227 117.166 28.0227C118.178 28.0227 119.024 27.8977 119.706 27.6477C120.388 27.3977 120.905 27.0511 121.257 26.608C121.609 26.1648 121.791 25.6591 121.803 25.0909C121.791 24.5568 121.615 24.0909 121.274 23.6932C120.945 23.2841 120.399 22.9205 119.638 22.6023C118.876 22.2727 117.848 21.9659 116.553 21.6818L113.075 20.9318C109.984 20.2614 107.547 19.142 105.763 17.5739C103.99 15.9943 103.109 13.8409 103.121 11.1136C103.109 8.89773 103.7 6.96023 104.893 5.30114C106.098 3.63068 107.763 2.32955 109.888 1.39773C112.024 0.465909 114.473 0 117.234 0C120.053 0 122.49 0.471591 124.547 1.41477C126.604 2.35795 128.189 3.6875 129.303 5.40341C130.428 7.10795 130.996 9.10227 131.007 11.3864H121.939ZM19.7045 48.3864C19.6136 47.25 19.1875 46.3636 18.4261 45.7273C17.6761 45.0909 16.5341 44.7727 15 44.7727C14.0227 44.7727 13.2216 44.892 12.5966 45.1307C11.983 45.358 11.5284 45.6705 11.233 46.0682C10.9375 46.4659 10.7841 46.9205 10.7727 47.4318C10.75 47.8523 10.8239 48.233 10.9943 48.5739C11.1761 48.9034 11.4602 49.2045 11.8466 49.4773C12.233 49.7386 12.7273 49.9773 13.3295 50.1932C13.9318 50.4091 14.6477 50.6023 15.4773 50.7727L18.3409 51.3864C20.2727 51.7955 21.9261 52.3352 23.3011 53.0057C24.6761 53.6761 25.8011 54.4659 26.6761 55.375C27.5511 56.2727 28.1932 57.2841 28.6023 58.4091C29.0227 59.5341 29.2386 60.7614 29.25 62.0909C29.2386 64.3864 28.6648 66.3295 27.5284 67.9205C26.392 69.5114 24.767 70.7216 22.6534 71.5511C20.5511 72.3807 18.0227 72.7955 15.0682 72.7955C12.0341 72.7955 9.38636 72.3466 7.125 71.4489C4.875 70.5511 3.125 69.1705 1.875 67.3068C0.636364 65.4318 0.0113636 63.0341 0 60.1136H9C9.05682 61.1818 9.32386 62.0795 9.80114 62.8068C10.2784 63.5341 10.9489 64.0852 11.8125 64.4602C12.6875 64.8352 13.7273 65.0227 14.9318 65.0227C15.9432 65.0227 16.7898 64.8977 17.4716 64.6477C18.1534 64.3977 18.6705 64.0511 19.0227 63.608C19.375 63.1648 19.5568 62.6591 19.5682 62.0909C19.5568 61.5568 19.3807 61.0909 19.0398 60.6932C18.7102 60.2841 18.1648 59.9205 17.4034 59.6023C16.642 59.2727 15.6136 58.9659 14.3182 58.6818L10.8409 57.9318C7.75 57.2614 5.3125 56.142 3.52841 54.5739C1.75568 52.9943 0.875 50.8409 0.886364 48.1136C0.875 45.8977 1.46591 43.9602 2.65909 42.3011C3.86364 40.6307 5.52841 39.3295 7.65341 38.3977C9.78977 37.4659 12.2386 37 15 37C17.8182 37 20.2557 37.4716 22.3125 38.4148C24.3693 39.358 25.9545 40.6875 27.0682 42.4034C28.1932 44.108 28.7614 46.1023 28.7727 48.3864H19.7045ZM32.8551 72.3864V37.4773H42.3324V51.1136H54.8778V37.4773H64.3551V72.3864H54.8778V58.75H42.3324V72.3864H32.8551ZM102.673 54.9318C102.673 58.8182 101.918 62.0966 100.406 64.767C98.8949 67.4261 96.8551 69.4432 94.2869 70.8182C91.7188 72.1818 88.8551 72.8636 85.696 72.8636C82.5142 72.8636 79.6392 72.1761 77.071 70.8011C74.5142 69.4148 72.4801 67.392 70.9688 64.733C69.4688 62.0625 68.7188 58.7955 68.7188 54.9318C68.7188 51.0455 69.4688 47.7727 70.9688 45.1136C72.4801 42.4432 74.5142 40.4261 77.071 39.0625C79.6392 37.6875 82.5142 37 85.696 37C88.8551 37 91.7188 37.6875 94.2869 39.0625C96.8551 40.4261 98.8949 42.4432 100.406 45.1136C101.918 47.7727 102.673 51.0455 102.673 54.9318ZM92.9233 54.9318C92.9233 52.8409 92.6449 51.0795 92.0881 49.6477C91.5426 48.2045 90.7301 47.1136 89.6506 46.375C88.5824 45.625 87.2642 45.25 85.696 45.25C84.1278 45.25 82.804 45.625 81.7244 46.375C80.6562 47.1136 79.8438 48.2045 79.2869 49.6477C78.7415 51.0795 78.4688 52.8409 78.4688 54.9318C78.4688 57.0227 78.7415 58.7898 79.2869 60.233C79.8438 61.6648 80.6562 62.7557 81.7244 63.5057C82.804 64.2443 84.1278 64.6136 85.696 64.6136C87.2642 64.6136 88.5824 64.2443 89.6506 63.5057C90.7301 62.7557 91.5426 61.6648 92.0881 60.233C92.6449 58.7898 92.9233 57.0227 92.9233 54.9318ZM107.058 72.3864V37.4773H132.217V45.1136H116.536V51.1136H130.922V58.75H116.536V64.75H132.149V72.3864H107.058ZM155.736 48.3864C155.645 47.25 155.219 46.3636 154.457 45.7273C153.707 45.0909 152.565 44.7727 151.031 44.7727C150.054 44.7727 149.253 44.892 148.628 45.1307C148.014 45.358 147.56 45.6705 147.264 46.0682C146.969 46.4659 146.815 46.9205 146.804 47.4318C146.781 47.8523 146.855 48.233 147.026 48.5739C147.207 48.9034 147.491 49.2045 147.878 49.4773C148.264 49.7386 148.759 49.9773 149.361 50.1932C149.963 50.4091 150.679 50.6023 151.509 50.7727L154.372 51.3864C156.304 51.7955 157.957 52.3352 159.332 53.0057C160.707 53.6761 161.832 54.4659 162.707 55.375C163.582 56.2727 164.224 57.2841 164.634 58.4091C165.054 59.5341 165.27 60.7614 165.281 62.0909C165.27 64.3864 164.696 66.3295 163.56 67.9205C162.423 69.5114 160.798 70.7216 158.685 71.5511C156.582 72.3807 154.054 72.7955 151.099 72.7955C148.065 72.7955 145.418 72.3466 143.156 71.4489C140.906 70.5511 139.156 69.1705 137.906 67.3068C136.668 65.4318 136.043 63.0341 136.031 60.1136H145.031C145.088 61.1818 145.355 62.0795 145.832 62.8068C146.31 63.5341 146.98 64.0852 147.844 64.4602C148.719 64.8352 149.759 65.0227 150.963 65.0227C151.974 65.0227 152.821 64.8977 153.503 64.6477C154.185 64.3977 154.702 64.0511 155.054 63.608C155.406 63.1648 155.588 62.6591 155.599 62.0909C155.588 61.5568 155.412 61.0909 155.071 60.6932C154.741 60.2841 154.196 59.9205 153.435 59.6023C152.673 59.2727 151.645 58.9659 150.349 58.6818L146.872 57.9318C143.781 57.2614 141.344 56.142 139.56 54.5739C137.787 52.9943 136.906 50.8409 136.918 48.1136C136.906 45.8977 137.497 43.9602 138.69 42.3011C139.895 40.6307 141.56 39.3295 143.685 38.3977C145.821 37.4659 148.27 37 151.031 37C153.849 37 156.287 37.4716 158.344 38.4148C160.401 39.358 161.986 40.6875 163.099 42.4034C164.224 44.108 164.793 46.1023 164.804 48.3864H155.736Z" fill="white"/>
</svg>
